<svg width="15" height="15" viewBox="0 0 15 15" fill="none" xmlns="http://www.w3.org/2000/svg">
<g id="Pricing">
<path id="Vector" d="M6.95543 0H7.48277C7.90347 0.09375 8.22496 0.33125 8.47613 0.675391C8.60894 0.85625 8.76441 1.02031 8.89527 1.20234C9.06714 1.44219 9.28121 1.50547 9.55933 1.4207C9.85308 1.33164 10.1507 1.25313 10.4496 1.18203C10.6422 1.13556 10.8424 1.12931 11.0376 1.16366C11.2328 1.19801 11.4189 1.27222 11.5841 1.38168C11.7493 1.49113 11.8902 1.63346 11.998 1.7998C12.1058 1.96613 12.1781 2.1529 12.2105 2.34844C12.2726 2.72422 12.2574 3.10703 12.2886 3.48633C12.3062 3.71602 12.4187 3.85352 12.6269 3.93164C12.9144 4.03984 13.2015 4.14961 13.4863 4.26367C14.3847 4.62305 14.7097 5.625 14.1894 6.44063C14.024 6.69974 13.8563 6.95729 13.6863 7.21328C13.5574 7.40625 13.5574 7.59336 13.6863 7.78633C13.8488 8.02969 14.0066 8.27656 14.1656 8.52226C14.7234 9.38437 14.3925 10.3945 13.4324 10.7605C13.1543 10.8663 12.8764 10.9728 12.5988 11.0801C12.4074 11.1539 12.3 11.2883 12.2902 11.4992C12.2753 11.8156 12.2511 12.132 12.2382 12.4484C12.2066 13.3133 11.4332 13.968 10.5793 13.8395C10.2074 13.7832 9.8523 13.6531 9.48785 13.5629C9.273 13.5094 9.09371 13.552 8.9523 13.7313C8.79605 13.9301 8.62691 14.1219 8.47613 14.325C8.22261 14.668 7.90308 14.9066 7.48238 15H6.95543C6.54019 14.9074 6.22183 14.675 5.97183 14.3359C5.8359 14.1516 5.67691 13.9844 5.54214 13.798C5.36988 13.5586 5.1566 13.4945 4.87808 13.5793C4.58433 13.6684 4.28707 13.7473 3.98824 13.818C3.79557 13.8644 3.59539 13.8707 3.40019 13.8364C3.20499 13.8021 3.01894 13.728 2.85365 13.6186C2.68836 13.5093 2.54737 13.367 2.43948 13.2008C2.33158 13.0345 2.25909 12.8478 2.22652 12.6523C2.16324 12.2766 2.18004 11.8938 2.14839 11.5145C2.13043 11.2855 2.01871 11.1461 1.81089 11.0676C1.52444 10.9592 1.23798 10.8488 0.951519 10.7363C0.0530816 10.3824 -0.2727 9.37383 0.248394 8.55977C0.411285 8.30469 0.574566 8.05195 0.744097 7.79922C0.880816 7.59687 0.880816 7.40351 0.744097 7.20117C0.574566 6.95078 0.411285 6.69609 0.248394 6.44102C-0.271528 5.62617 0.0530816 4.61836 0.951519 4.26367C1.24644 4.14648 1.54332 4.03594 1.83902 3.92109C2.03004 3.84648 2.13668 3.71055 2.14683 3.50078C2.16246 3.1793 2.18589 2.8582 2.19957 2.53672C2.23472 1.6832 3.01363 1.03086 3.85777 1.16055C4.22965 1.21758 4.58511 1.34648 4.94918 1.4375C5.16402 1.49102 5.34332 1.44766 5.48511 1.26914C5.64878 1.06289 5.82339 0.864453 5.98042 0.653125C6.23003 0.318359 6.54605 0.0914062 6.95543 0ZM7.67613 6.05469C7.67613 5.77161 7.67613 5.48841 7.67613 5.20508C7.67613 5.13672 7.67613 5.07891 7.77847 5.09531C8.23746 5.16875 8.64293 5.5793 8.6898 6.02461C8.71988 6.31055 8.90972 6.4793 9.18707 6.46758C9.44683 6.45625 9.61949 6.26094 9.61949 5.97578C9.61949 5.57148 9.4691 5.22344 9.21246 4.92109C8.85504 4.49727 8.3898 4.25391 7.85386 4.14258C7.7191 4.11445 7.66519 4.06133 7.67261 3.91953C7.68121 3.75977 7.69292 3.59727 7.65035 3.43867C7.6225 3.33132 7.55749 3.23733 7.46687 3.17339C7.37625 3.10945 7.2659 3.07971 7.15543 3.08945C7.04235 3.09913 6.93675 3.14991 6.85858 3.23218C6.78041 3.31445 6.73509 3.42252 6.73121 3.53594C6.7232 3.65781 6.7232 3.78008 6.73121 3.90195C6.74488 4.05469 6.68199 4.11484 6.53589 4.14453C6.13616 4.22247 5.76198 4.39828 5.44683 4.65625C4.61402 5.33789 4.54175 6.44375 5.28589 7.20547C5.63433 7.56211 6.06714 7.77149 6.54996 7.86953C6.68589 7.89727 6.73511 7.95391 6.73277 8.09336C6.72613 8.58633 6.73043 9.07969 6.73043 9.57266C6.73043 9.90117 6.72261 9.91055 6.42183 9.78047C6.03121 9.61055 5.7355 9.36328 5.70503 8.88906C5.68941 8.64062 5.48707 8.47969 5.25074 8.47617C4.92105 8.47148 4.72379 8.74258 4.77769 9.1168C4.85582 9.67383 5.15269 10.0934 5.60464 10.409C5.89409 10.6109 6.22353 10.7482 6.57066 10.8117C6.6855 10.8336 6.7398 10.8844 6.73199 11.007C6.72379 11.1383 6.72769 11.2707 6.73199 11.4023C6.73751 11.5151 6.78353 11.6221 6.86161 11.7036C6.93968 11.7852 7.04456 11.8358 7.15698 11.8462C7.26939 11.8566 7.38177 11.8261 7.47349 11.7603C7.56521 11.6944 7.63009 11.5977 7.65621 11.4879C7.69175 11.3383 7.68277 11.1859 7.67379 11.0359C7.6648 10.8859 7.7191 10.8297 7.86129 10.8016C8.20781 10.7348 8.53577 10.5938 8.82261 10.3883C9.8773 9.64219 9.89175 8.2875 8.8566 7.51758C8.55753 7.29541 8.21205 7.14384 7.84605 7.07422C7.71168 7.04805 7.67105 6.98984 7.67496 6.85899C7.68121 6.5918 7.67574 6.32344 7.67613 6.05469Z" fill="#E7F3FF"/>
<path id="Vector_2" d="M6.72838 5.99064C6.72838 6.25392 6.72603 6.5172 6.72838 6.78048C6.72838 6.90236 6.68423 6.93673 6.56744 6.89767C6.30845 6.81056 6.07291 6.68986 5.89674 6.47423C5.65338 6.17618 5.65103 5.83908 5.89322 5.53908C6.07798 5.31017 6.32838 5.184 6.60377 5.10001C6.71275 5.06681 6.72877 5.13048 6.72838 5.2172C6.72759 5.47384 6.72838 5.73243 6.72838 5.99064Z" fill="#E7F3FF"/>
<path id="Vector_3" d="M8.68506 8.93119C8.67376 9.14124 8.58299 9.33912 8.43116 9.4847C8.2542 9.66244 8.03701 9.7683 7.80147 9.84291C7.71475 9.87025 7.67491 9.84291 7.6753 9.74759C7.67725 9.21088 7.6753 8.67416 7.6753 8.13705C7.6753 8.0765 7.6753 8.01986 7.76983 8.03158C8.16045 8.07689 8.60694 8.48002 8.67178 8.85189C8.67842 8.88197 8.68194 8.91127 8.68506 8.93119Z" fill="#E7F3FF"/>
</g>
</svg>
