<svg width="13" height="15" viewBox="0 0 13 15" fill="none" xmlns="http://www.w3.org/2000/svg">
<g id="Billing">
<path id="Subtract" fill-rule="evenodd" clip-rule="evenodd" d="M0 2C0 0.89543 0.895431 0 2 0H10C11.1046 0 12 0.895431 12 2V7.53513C11.4117 7.19479 10.7286 7 10 7C7.79086 7 6 8.79086 6 11C6 13.2091 7.79086 15 10 15H2C0.895431 15 0 14.1046 0 13V2ZM2.5 2C2.22386 2 2 2.22386 2 2.5C2 2.77614 2.22386 3 2.5 3H3.5C3.77614 3 4 2.77614 4 2.5C4 2.22386 3.77614 2 3.5 2H2.5ZM2 4.5C2 4.22386 2.22386 4 2.5 4H3.5C3.77614 4 4 4.22386 4 4.5C4 4.77614 3.77614 5 3.5 5H2.5C2.22386 5 2 4.77614 2 4.5ZM2.5 6C2.22386 6 2 6.22386 2 6.5C2 6.77614 2.22386 7 2.5 7H3.5C3.77614 7 4 6.77614 4 6.5C4 6.22386 3.77614 6 3.5 6H2.5ZM2 8.5C2 8.22386 2.22386 8 2.5 8H3.5C3.77614 8 4 8.22386 4 8.5C4 8.77614 3.77614 9 3.5 9H2.5C2.22386 9 2 8.77614 2 8.5ZM5.5 2C5.22386 2 5 2.22386 5 2.5C5 2.77614 5.22386 3 5.5 3H9.5C9.77614 3 10 2.77614 10 2.5C10 2.22386 9.77614 2 9.5 2H5.5ZM5 4.5C5 4.22386 5.22386 4 5.5 4H9.5C9.77614 4 10 4.22386 10 4.5C10 4.77614 9.77614 5 9.5 5H5.5C5.22386 5 5 4.77614 5 4.5ZM5.5 6C5.22386 6 5 6.22386 5 6.5C5 6.77614 5.22386 7 5.5 7H7.5C7.77614 7 8 6.77614 8 6.5C8 6.22386 7.77614 6 7.5 6H5.5Z" fill="#E7F3FF"/>
<path id="Subtract_2" fill-rule="evenodd" clip-rule="evenodd" d="M10 14C11.6569 14 13 12.6569 13 11C13 9.34315 11.6569 8 10 8C8.34315 8 7 9.34315 7 11C7 12.6569 8.34315 14 10 14ZM10.1026 10.6974C10.7666 10.9649 11 11.2325 11 11.6404C11 12.1447 10.6258 12.443 10.2354 12.5351V12.5614V12.7237C10.2354 12.8728 10.1268 13 9.98592 13C9.84507 13 9.73239 12.8728 9.73239 12.7237V12.5614V12.5395C9.50302 12.4956 9.28571 12.3772 9.12877 12.1886C9.08451 12.1316 9 12.0132 9 11.864C9 11.7281 9.08048 11.5877 9.24547 11.5877C9.37827 11.5877 9.4668 11.6798 9.53119 11.7719C9.67203 11.943 9.84507 11.9825 9.96177 11.9825C10.1308 11.9825 10.3803 11.9167 10.3803 11.6404C10.3803 11.443 10.2676 11.3377 9.96177 11.2061L9.8169 11.1491C9.39839 10.9737 9.08451 10.7588 9.08451 10.2982C9.08451 9.86404 9.35412 9.56579 9.73239 9.4693V9.27632C9.73239 9.12719 9.84507 9 9.98592 9C10.1268 9 10.2354 9.12719 10.2354 9.27632V9.45614C10.4487 9.5 10.5976 9.60526 10.7223 9.74123C10.8109 9.85088 10.8551 9.93421 10.8551 10.0351C10.8551 10.1798 10.7465 10.2939 10.6056 10.2939C10.5171 10.2939 10.4245 10.2368 10.3682 10.1711C10.2555 10.0614 10.1791 10.0132 10.0302 10.0132C9.80885 10.0132 9.69215 10.1404 9.69215 10.307C9.69215 10.4211 9.73642 10.5482 9.96982 10.6447L10.1026 10.6974Z" fill="#E7F3FF"/>
</g>
</svg>
