<svg width="15" height="15" viewBox="0 0 15 15" fill="none" xmlns="http://www.w3.org/2000/svg">
<g id="Top up">
<circle id="Ellipse 247" cx="7.5" cy="7.5" r="7.5" fill="#E7F3FF"/>
<path id="+" d="M9.83065 6.5941C10.3584 6.5941 10.8333 7.01626 10.8333 7.54397C10.8333 8.07167 10.3584 8.47624 9.83065 8.47624H8.45862V9.83069C8.45862 10.3584 8.03646 10.8333 7.50875 10.8333C6.98105 10.8333 6.57648 10.3584 6.57648 9.83069V8.47624H5.18685C4.64156 8.47624 4.16663 8.07167 4.16663 7.54397C4.16663 7.01626 4.64156 6.5941 5.18685 6.5941H6.57648V5.18688C6.57648 4.64159 6.98105 4.16666 7.50875 4.16666C8.03646 4.16666 8.45862 4.64159 8.45862 5.18688V6.5941H9.83065Z" fill="#01162B"/>
</g>
</svg>
