<svg width="13" height="15" viewBox="0 0 13 15" fill="none" xmlns="http://www.w3.org/2000/svg">
<g id="Term">
<path id="Vector" d="M12.3188 15H0.307032C0.0832039 14.893 -0.000389263 14.7168 1.36195e-06 14.4688C0.00390761 9.82318 0.00390761 5.17734 1.36195e-06 0.53125C1.36195e-06 0.282813 0.0832039 0.106641 0.307032 0H9.0375C9.04141 0.0679687 9.04844 0.135938 9.04844 0.203906C9.04844 1.1362 9.04844 2.06862 9.04844 3.00117C9.04844 3.40273 9.20742 3.5625 9.60625 3.56289C10.5336 3.56289 11.4611 3.56289 12.3887 3.56289C12.623 3.56289 12.623 3.56289 12.623 3.79219C12.623 7.3513 12.624 10.91 12.6258 14.4684C12.6262 14.7164 12.5426 14.8926 12.3188 15ZM4.04453 11.416C4.61537 11.416 5.18607 11.416 5.75664 11.416C6.13672 11.416 6.30117 11.2512 6.30117 10.8715C6.30117 9.77773 6.30117 8.68477 6.30117 7.59258C6.30117 7.21055 6.13789 7.0457 5.76016 7.0457C4.61432 7.0457 3.46771 7.0457 2.32031 7.0457C1.95 7.0457 1.78359 7.21211 1.78359 7.58281C1.78359 8.68047 1.78359 9.77825 1.78359 10.8762C1.78359 11.2535 1.94922 11.4164 2.33047 11.4168C2.90234 11.4163 3.4737 11.416 4.04453 11.416ZM6.31289 12.3145H2.37422C2.28637 12.3109 2.19842 12.3185 2.1125 12.3371C1.91367 12.3887 1.8 12.5324 1.8 12.7418C1.8 12.9512 1.91016 13.0934 2.1125 13.1469C2.18849 13.1649 2.26647 13.173 2.34453 13.1711H10.2805C10.3534 13.1718 10.4263 13.1646 10.4977 13.1496C10.7117 13.1023 10.8238 12.959 10.8238 12.7434C10.8238 12.5277 10.709 12.3863 10.4984 12.3352C10.4171 12.3187 10.3341 12.3122 10.2512 12.3156L6.31289 12.3145ZM4.96602 2.62695C5.83451 2.62695 6.70299 2.62695 7.57148 2.62695C7.65933 2.62987 7.74715 2.62053 7.83242 2.59922C8.02188 2.5457 8.12891 2.40117 8.12852 2.19727C8.12813 1.99336 8.01875 1.8457 7.83086 1.79648C7.75024 1.77671 7.66735 1.76778 7.58438 1.76992H2.34375C2.26574 1.76761 2.18775 1.77536 2.11172 1.79297C2.02216 1.81123 1.94184 1.86032 1.88474 1.9317C1.82764 2.00307 1.79738 2.09221 1.79922 2.18359C1.79492 2.39492 1.90274 2.54453 2.09727 2.59922C2.18259 2.62022 2.27038 2.62942 2.3582 2.62656C3.228 2.62526 4.09727 2.62539 4.96602 2.62695ZM4.96602 3.52852C4.09258 3.52852 3.21914 3.52852 2.3457 3.52852C2.25787 3.52617 2.17015 3.5363 2.08516 3.55859C2.0094 3.57942 1.94185 3.62298 1.89162 3.6834C1.8414 3.74382 1.81092 3.81819 1.8043 3.89648C1.77305 4.20352 1.9582 4.38437 2.31211 4.38437C4.07852 4.38437 5.84492 4.38437 7.61133 4.38437C7.68443 4.38406 7.75723 4.37488 7.82812 4.35703C8.02344 4.30742 8.13164 4.15547 8.12695 3.94414C8.12955 3.85304 8.09996 3.76395 8.04338 3.69251C7.9868 3.62107 7.90685 3.57185 7.81758 3.55352C7.7375 3.53361 7.65517 3.52415 7.57266 3.52539L4.96602 3.52852ZM4.94961 6.14258H6.50117C6.88672 6.14258 7.27227 6.14609 7.65742 6.14258C7.93945 6.13867 8.1082 5.9957 8.12617 5.76055C8.14922 5.46094 7.96563 5.28867 7.61524 5.28828C5.84883 5.28828 4.08229 5.28828 2.31563 5.28828C2.24269 5.2885 2.17004 5.29741 2.09922 5.31484C1.91016 5.36133 1.80078 5.51211 1.80078 5.71367C1.80078 5.91523 1.9082 6.0625 2.09727 6.11602C2.18244 6.13712 2.27011 6.14645 2.35781 6.14375C3.22188 6.14141 4.08581 6.14102 4.94961 6.14258ZM9.02266 7.90039C9.44688 7.90039 9.87123 7.90039 10.2957 7.90039C10.3689 7.90159 10.4419 7.89331 10.5129 7.87578C10.7145 7.82305 10.8254 7.68047 10.8254 7.47148C10.8254 7.2625 10.7137 7.11758 10.5129 7.0668C10.4369 7.04919 10.3589 7.04144 10.2809 7.04375H8.17383C8.01289 7.04375 7.85156 7.03828 7.69102 7.04609C7.42305 7.05938 7.26133 7.2082 7.25156 7.44219C7.23789 7.725 7.41445 7.8957 7.73516 7.89883C8.16406 7.90039 8.59336 7.90039 9.02266 7.90039ZM9.03398 9.6582C9.47305 9.6582 9.91211 9.66172 10.3508 9.6582C10.6391 9.65508 10.809 9.50703 10.8227 9.26367C10.8391 8.97617 10.6594 8.80547 10.3281 8.8043C9.46875 8.80247 8.61029 8.80247 7.75273 8.8043C7.67967 8.80475 7.60695 8.81446 7.53633 8.8332C7.46024 8.85289 7.39218 8.89578 7.34157 8.9559C7.29096 9.01603 7.26032 9.09042 7.25391 9.16875C7.22305 9.46719 7.40078 9.6543 7.73164 9.65742C8.16563 9.6582 8.6 9.6582 9.03398 9.6582ZM9.04883 10.5605C8.60977 10.5605 8.1707 10.5578 7.73203 10.5605C7.4293 10.5633 7.25508 10.7168 7.25039 10.9754C7.2457 11.2488 7.42188 11.4125 7.73789 11.4145C8.30859 11.418 8.8793 11.4145 9.45 11.4145C9.75234 11.4145 10.0547 11.4187 10.357 11.4125C10.6594 11.4062 10.8258 11.2449 10.8258 10.9828C10.8258 10.7207 10.6531 10.5629 10.3531 10.5598C9.91641 10.5566 9.48281 10.5586 9.04883 10.5586V10.5605Z" fill="#E7F3FF"/>
<path id="Vector_2" d="M11.1328 2.70508C10.7769 2.70508 10.4207 2.70118 10.0648 2.70508C9.94762 2.70508 9.90269 2.66602 9.90308 2.5461C9.90738 1.83399 9.90504 1.12188 9.90582 0.409769C9.90582 0.368753 9.88629 0.310941 9.93394 0.290629C9.9816 0.270316 10.0093 0.324222 10.0386 0.353519C10.7772 1.09102 11.5153 1.82904 12.2531 2.56758C12.2824 2.59727 12.3355 2.625 12.3183 2.67227C12.3011 2.71954 12.2402 2.70196 12.2011 2.70196C11.8449 2.70743 11.489 2.70508 11.1328 2.70508Z" fill="#E7F3FF"/>
<path id="Vector_3" d="M4.04254 7.9004C4.45739 7.9004 4.87223 7.90352 5.28707 7.89805C5.40778 7.89805 5.44762 7.93711 5.44684 8.0586C5.44319 8.83985 5.44319 9.6211 5.44684 10.4023C5.44684 10.5231 5.40777 10.5629 5.28629 10.5621C4.4566 10.5585 3.62692 10.5585 2.79723 10.5621C2.67653 10.5621 2.63668 10.5231 2.63746 10.402C2.64111 9.62071 2.64111 8.83946 2.63746 8.05821C2.63746 7.93751 2.67653 7.89649 2.79801 7.89805C3.21285 7.90235 3.62731 7.9004 4.04254 7.9004Z" fill="#E7F3FF"/>
</g>
</svg>
