<svg width="15" height="15" viewBox="0 0 15 15" fill="none" xmlns="http://www.w3.org/2000/svg">
<g id="Dashboard">
<path id="Dashboard_2" d="M7.23574 0H7.76309C8.10264 0.0793945 8.371 0.269531 8.61475 0.51416C10.5548 2.45967 12.4981 4.40303 14.4448 6.34424C14.7029 6.60117 14.9136 6.87773 15.0015 7.23779V7.76514C14.804 8.4627 14.3604 8.8585 13.6216 8.90039C13.4203 8.91182 13.4165 8.92295 13.4165 9.14854C13.4165 10.4938 13.4165 11.8393 13.4165 13.1848C13.4165 13.539 13.3784 13.8844 13.1924 14.1993C12.934 14.6312 12.5496 14.8828 12.0697 15H9.22793C9.00117 14.8857 8.9209 14.7003 8.92236 14.4498C8.92852 13.328 8.92588 12.2065 8.92441 11.0848C8.92441 10.6113 8.63144 10.3201 8.15742 10.3172C7.72822 10.3148 7.29844 10.331 6.86836 10.3128C6.35332 10.2911 6.06094 10.6937 6.0668 11.1132C6.08232 12.225 6.06855 13.3371 6.07471 14.4489C6.07471 14.6988 5.99531 14.8849 5.76943 15H2.9291C2.45537 14.8828 2.07246 14.6382 1.81582 14.2113C1.62685 13.8979 1.5835 13.5542 1.5832 13.1994C1.5832 12.39 1.5832 11.5807 1.5832 10.7713C1.5832 10.2105 1.58086 9.6501 1.58467 9.08936C1.58467 8.96162 1.54219 8.90215 1.40889 8.89834C1.2673 8.89828 1.1264 8.87856 0.990234 8.83975C0.452343 8.67158 0.140625 8.29775 0 7.76338V7.23633C0.0805664 6.8918 0.275684 6.62109 0.523828 6.37412C2.47344 4.43057 4.42002 2.48389 6.36357 0.534082C6.61348 0.283008 6.88418 0.0811523 7.23574 0Z" fill="#FAA300"/>
</g>
</svg>
