<svg width="19" height="18" viewBox="0 0 19 18" fill="none" xmlns="http://www.w3.org/2000/svg">
<g id="Log out">
<path id="Vector" d="M1.9526 6.68398C1.951 9.08048 3.67288 11.1083 5.984 11.4467C7.55786 11.6772 8.92586 11.2316 10.076 10.1297C10.384 9.8345 10.7303 9.71481 11.1392 9.86202C11.8147 10.1054 11.9998 10.9512 11.4895 11.4638C10.382 12.5765 9.05034 13.2304 7.48924 13.4111C6.14158 13.5671 4.85377 13.3489 3.65852 12.7129C1.72719 11.6848 0.511589 10.0914 0.120218 7.92631C-0.259982 5.82384 0.264239 3.93401 1.65578 2.31547C2.78282 1.00451 4.22303 0.234539 5.9469 0.0462338C8.09246 -0.18795 9.9392 0.469122 11.4815 1.98075C11.7851 2.27836 11.8625 2.69407 11.6994 3.06789C11.5402 3.43253 11.1688 3.66831 10.7702 3.65076C10.4989 3.63879 10.2771 3.5203 10.084 3.33C9.42974 2.68569 8.65577 2.25921 7.75853 2.05455C5.09992 1.44855 2.41778 3.27734 2.01045 5.97664C1.97334 6.22319 1.94502 6.47054 1.9526 6.68398Z" fill="#E7F3FF"/>
<g id="Vector_2" filter="url(#filter0_d_117_899)">
<path d="M11.6694 5.70176C11.5996 5.64591 11.5222 5.59764 11.4611 5.53341C11.0829 5.13884 11.0805 4.55398 11.4512 4.17338C11.831 3.78361 12.4142 3.76765 12.8196 4.14386C13.0238 4.33336 13.2157 4.53643 13.4128 4.73391C13.8281 5.14962 14.2438 5.56532 14.6579 5.98183C15.1115 6.43823 15.1143 7.01072 14.6639 7.46393C14.0635 8.06794 13.4639 8.67315 12.8583 9.27158C12.3488 9.77505 11.5465 9.63741 11.2613 9.00428C11.0977 8.64123 11.1711 8.22234 11.4548 7.92432C11.5186 7.8573 11.5944 7.80144 11.6746 7.73163C11.5824 7.67777 11.5222 7.69492 11.4651 7.69492C9.88289 7.69373 8.30065 7.69492 6.71841 7.69333C6.28275 7.69293 5.91811 7.41765 5.79165 7.00354C5.60494 6.39075 6.06573 5.76081 6.71003 5.75961C8.29227 5.75642 9.87451 5.75842 11.4567 5.75842C11.5154 5.75842 11.574 5.75842 11.6327 5.75842C11.6451 5.73927 11.657 5.72051 11.6694 5.70176Z" fill="#E7F3FF"/>
<path d="M12.3379 5.59628L12.0868 5.97706C12.0793 5.98847 12.0724 5.99908 12.064 6.01217C12.0605 6.01752 12.0568 6.02328 12.0527 6.02967L11.905 6.25842H11.6327H11.6323H11.632H11.6317H11.6313H11.631H11.6306H11.6303H11.6299H11.6296H11.6292H11.6289H11.6286H11.6282H11.6279H11.6275H11.6272H11.6268H11.6265H11.6262H11.6258H11.6255H11.6251H11.6248H11.6244H11.6241H11.6238H11.6234H11.6231H11.6227H11.6224H11.622H11.6217H11.6213H11.621H11.6207H11.6203H11.62H11.6196H11.6193H11.6189H11.6186H11.6183H11.6179H11.6176H11.6172H11.6169H11.6165H11.6162H11.6158H11.6155H11.6152H11.6148H11.6145H11.6141H11.6138H11.6134H11.6131H11.6128H11.6124H11.6121H11.6117H11.6114H11.611H11.6107H11.6104H11.61H11.6097H11.6093H11.609H11.6086H11.6083H11.6079H11.6076H11.6073H11.6069H11.6066H11.6062H11.6059H11.6055H11.6052H11.6049H11.6045H11.6042H11.6038H11.6035H11.6031H11.6028H11.6024H11.6021H11.6018H11.6014H11.6011H11.6007H11.6004H11.6H11.5997H11.5994H11.599H11.5987H11.5983H11.598H11.5976H11.5973H11.5969H11.5966H11.5963H11.5959H11.5956H11.5952H11.5949H11.5945H11.5942H11.5939H11.5935H11.5932H11.5928H11.5925H11.5921H11.5918H11.5915H11.5911H11.5908H11.5904H11.5901H11.5897H11.5894H11.589H11.5887H11.5884H11.588H11.5877H11.5873H11.587H11.5866H11.5863H11.586H11.5856H11.5853H11.5849H11.5846H11.5842H11.5839H11.5835H11.5832H11.5829H11.5825H11.5822H11.5818H11.5815H11.5811H11.5808H11.5805H11.5801H11.5798H11.5794H11.5791H11.5787H11.5784H11.578H11.5777H11.5774H11.577H11.5767H11.5763H11.576H11.5756H11.5753H11.575H11.5746H11.5743H11.5739H11.5736H11.5732H11.5729H11.5726H11.5722H11.5719H11.5715H11.5712H11.5708H11.5705H11.5701H11.5698H11.5695H11.5691H11.5688H11.5684H11.5681H11.5677H11.5674H11.5671H11.5667H11.5664H11.566H11.5657H11.5653H11.565H11.5646H11.5643H11.564H11.5636H11.5633H11.5629H11.5626H11.5622H11.5619H11.5616H11.5612H11.5609H11.5605H11.5602H11.5598H11.5595H11.5591H11.5588H11.5585H11.5581H11.5578H11.5574H11.5571H11.5567H11.5564H11.5561H11.5557H11.5554H11.555H11.5547H11.5543H11.554H11.5537H11.5533H11.553H11.5526H11.5523H11.5519H11.5516H11.5512H11.5509H11.5506H11.5502H11.5499H11.5495H11.5492H11.5488H11.5485H11.5482H11.5478H11.5475H11.5471H11.5468H11.5464H11.5461H11.5457H11.5454H11.5451H11.5447H11.5444H11.544H11.5437H11.5433H11.543H11.5427H11.5423H11.542H11.5416H11.5413H11.5409H11.5406H11.5403H11.5399H11.5396H11.5392H11.5389H11.5385H11.5382H11.5378H11.5375H11.5372H11.5368H11.5365H11.5361H11.5358H11.5354H11.5351H11.5348H11.5344H11.5341H11.5337H11.5334H11.533H11.5327H11.5323H11.532H11.5317H11.5313H11.531H11.5306H11.5303H11.5299H11.5296H11.5293H11.5289H11.5286H11.5282H11.5279H11.5275H11.5272H11.5268H11.5265H11.5262H11.5258H11.5255H11.5251H11.5248H11.5244H11.5241H11.5238H11.5234H11.5231H11.5227H11.5224H11.522H11.5217H11.5214H11.521H11.5207H11.5203H11.52H11.5196H11.5193H11.5189H11.5186H11.5183H11.5179H11.5176H11.5172H11.5169H11.5165H11.5162H11.5159H11.5155H11.5152H11.5148H11.5145H11.5141H11.5138H11.5134H11.5131H11.5128H11.5124H11.5121H11.5117H11.5114H11.511H11.5107H11.5104H11.51H11.5097H11.5093H11.509H11.5086H11.5083H11.5079H11.5076H11.5073H11.5069H11.5066H11.5062H11.5059H11.5055H11.5052H11.5049H11.5045H11.5042H11.5038H11.5035H11.5031H11.5028H11.5025H11.5021H11.5018H11.5014H11.5011H11.5007H11.5004H11.5H11.4997H11.4994H11.499H11.4987H11.4983H11.498H11.4976H11.4973H11.497H11.4966H11.4963H11.4959H11.4956H11.4952H11.4949H11.4945H11.4942H11.4939H11.4935H11.4932H11.4928H11.4925H11.4921H11.4918H11.4915H11.4911H11.4908H11.4904H11.4901H11.4897H11.4894H11.4891H11.4887H11.4884H11.488H11.4877H11.4873H11.487H11.4866H11.4863H11.486H11.4856H11.4853H11.4849H11.4846H11.4842H11.4839H11.4836H11.4832H11.4829H11.4825H11.4822H11.4818H11.4815H11.4811H11.4808H11.4805H11.4801H11.4798H11.4794H11.4791H11.4787H11.4784H11.4781H11.4777H11.4774H11.477H11.4767H11.4763H11.476H11.4756H11.4753H11.475H11.4746H11.4743H11.4739H11.4736H11.4732H11.4729H11.4726H11.4722H11.4719H11.4715H11.4712H11.4708H11.4705H11.4702H11.4698H11.4695H11.4691H11.4688H11.4684H11.4681H11.4677H11.4674H11.4671H11.4667H11.4664H11.466H11.4657H11.4653H11.465H11.4647H11.4643H11.464H11.4636H11.4633H11.4629H11.4626H11.4622H11.4619H11.4616H11.4612H11.4609H11.4605H11.4602H11.4598H11.4595H11.4592H11.4588H11.4585H11.4581H11.4578H11.4574H11.4571H11.4567C11.0168 6.25842 10.5771 6.25826 10.1374 6.25811C8.99492 6.25771 7.85312 6.25731 6.71104 6.25961L6.71096 6.25961C6.4045 6.26018 6.18038 6.56354 6.26989 6.85767C6.33323 7.06481 6.50639 7.19313 6.71887 7.19333H6.71891C7.57132 7.19419 8.42234 7.19424 9.27364 7.19429C10.0036 7.19433 10.7337 7.19437 11.4651 7.19492C11.4625 7.19492 11.4527 7.1953 11.4836 7.19373C11.5053 7.19263 11.5452 7.19093 11.5928 7.19439C11.7002 7.20217 11.8126 7.23318 11.9269 7.29994L12.5282 7.65137L12.0029 8.10873C11.9479 8.1566 11.9136 8.18455 11.8886 8.20496C11.8578 8.23003 11.841 8.24373 11.8169 8.26904L12.3379 5.59628ZM12.3379 5.59628L11.9817 5.31133C11.9523 5.28775 11.9102 5.25654 11.8841 5.23721C11.8752 5.23061 11.8681 5.22539 11.8641 5.22233C11.8352 5.20045 11.8261 5.19159 11.8236 5.18897L11.8236 5.18897L11.8221 5.18741C11.6237 4.98043 11.6334 4.70297 11.8094 4.52221C11.9986 4.32814 12.2718 4.31765 12.4794 4.51033L12.4795 4.51041C12.6149 4.63606 12.7403 4.76372 12.8746 4.90051C12.9338 4.96073 12.9947 5.02273 13.0589 5.08711L13.0591 5.08729C13.1186 5.14682 13.178 5.20632 13.2375 5.26582C13.5934 5.62206 13.9489 5.97788 14.3033 6.33429L12.3379 5.59628ZM14.3093 7.11147C14.4586 6.96123 14.5004 6.82703 14.4999 6.72621C14.4995 6.62475 14.456 6.48792 14.3034 6.33436L14.3093 7.11147ZM14.3093 7.11147C14.2281 7.19316 14.1469 7.27481 14.0658 7.35642C13.5465 7.87914 13.0289 8.40004 12.5068 8.91592L12.5068 8.91594C12.2312 9.18829 11.8512 9.09644 11.7171 8.79889L11.7171 8.79889C11.6396 8.62673 11.6692 8.42428 11.8168 8.26915L14.3093 7.11147Z" stroke="black"/>
</g>
</g>
<defs>
<filter id="filter0_d_117_899" x="1.74976" y="3.87112" width="17.2502" height="13.7065" filterUnits="userSpaceOnUse" color-interpolation-filters="sRGB">
<feFlood flood-opacity="0" result="BackgroundImageFix"/>
<feColorMatrix in="SourceAlpha" type="matrix" values="0 0 0 0 0 0 0 0 0 0 0 0 0 0 0 0 0 0 127 0" result="hardAlpha"/>
<feOffset dy="4"/>
<feGaussianBlur stdDeviation="2"/>
<feComposite in2="hardAlpha" operator="out"/>
<feColorMatrix type="matrix" values="0 0 0 0 0 0 0 0 0 0 0 0 0 0 0 0 0 0 0.25 0"/>
<feBlend mode="normal" in2="BackgroundImageFix" result="effect1_dropShadow_117_899"/>
<feBlend mode="normal" in="SourceGraphic" in2="effect1_dropShadow_117_899" result="shape"/>
</filter>
</defs>
</svg>
