<svg width="15" height="15" viewBox="0 0 15 15" fill="none" xmlns="http://www.w3.org/2000/svg">
<g id="Guide">
<path id="Vector" d="M7.78474 0C8.08738 0.133301 8.20955 0.359766 8.20925 0.694922C8.20339 5.23164 8.20339 9.76836 8.20925 14.3051C8.20925 14.6402 8.0865 14.8661 7.78474 15H6.84724C6.54519 14.8664 6.42244 14.6405 6.42273 14.3051C6.42898 9.76856 6.42898 5.23174 6.42273 0.694629C6.42273 0.359473 6.5449 0.133301 6.84724 0H7.78474Z" fill="#E7F3FF"/>
<path id="Vector_2" d="M3.54137 2.18702C4.15133 2.18702 4.7613 2.18966 5.37126 2.18468C5.49518 2.18468 5.54235 2.21632 5.54176 2.34874C5.53708 3.41749 5.53708 4.48624 5.54176 5.55499C5.54176 5.69473 5.49108 5.72579 5.36276 5.7252C4.15749 5.72169 2.95221 5.72169 1.74694 5.7252C1.55856 5.7252 1.40241 5.66456 1.27643 5.52833C0.905827 5.12696 0.532878 4.72706 0.167546 4.31983C-0.0609693 4.06436 -0.0551107 3.7339 0.181315 3.48575C0.541081 3.10753 0.909051 2.73692 1.27585 2.36544C1.33411 2.30602 1.4041 2.25939 1.48138 2.22852C1.55866 2.19765 1.64151 2.18322 1.72468 2.18614C2.33112 2.18878 2.9361 2.18702 3.54137 2.18702Z" fill="#E7F3FF"/>
<path id="Vector_3" d="M11.07 9.23877C10.4648 9.23877 9.85978 9.23496 9.25362 9.24141C9.11271 9.24317 9.05821 9.21211 9.05909 9.05625C9.06593 7.99746 9.06593 6.93858 9.05909 5.87959C9.05909 5.73545 9.10656 5.69942 9.24396 5.7C10.4492 5.70469 11.6546 5.70518 12.8601 5.70147C12.9481 5.69875 13.0356 5.71527 13.1166 5.74988C13.1975 5.78449 13.27 5.83636 13.3288 5.90186C13.6962 6.29971 14.0659 6.69551 14.4275 7.09893C14.6636 7.3626 14.6519 7.70098 14.4058 7.95616C14.0604 8.31446 13.7097 8.66778 13.3631 9.02461C13.2965 9.09604 13.2154 9.15232 13.1251 9.18962C13.0349 9.22693 12.9377 9.24439 12.8401 9.24082C12.251 9.23497 11.6604 9.23877 11.07 9.23877Z" fill="#E7F3FF"/>
</g>
</svg>
